{
   "accessors" : 
   [
      {
         "bufferView" : 0,
         "byteOffset" : 0,
         "componentType" : 5126,
         "count" : 4851,
         "max" : [ 0.99494949494949503, 0.49489795918367346, 0.0 ],
         "min" : [ 0.0050505050505050509, 0.0051020408163265302, 0.0 ],
         "type" : "VEC3"
      },
      {
         "bufferView" : 1,
         "byteOffset" : 0,
         "componentType" : 5126,
         "count" : 4851,
         "normalized" : false,
         "type" : "VEC2"
      },
      {
         "bufferView" : 2,
         "byteOffset" : 0,
         "componentType" : 5125,
         "count" : 28224,
         "type" : "SCALAR"
      },
      {
         "bufferView" : 4,
         "byteOffset" : 0,
         "componentType" : 5126,
         "count" : 9802,
         "max" : [ 0.42498111724853516, 0.14998112618923187, 0.15000000596046448 ],
         "min" : [ 0.1250188797712326, -0.14998112618923187, -0.15000000596046448 ],
         "type" : "VEC3"
      },
      {
         "bufferView" : 5,
         "byteOffset" : 0,
         "componentType" : 5125,
         "count" : 58800,
         "type" : "SCALAR"
      },
      {
         "bufferView" : 6,
         "byteOffset" : 0,
         "componentType" : 5126,
         "count" : 9802,
         "max" : [ 0.8749811053276062, 0.14998112618923187, 0.15000000596046448 ],
         "min" : [ 0.57501888275146484, -0.14998112618923187, -0.15000000596046448 ],
         "type" : "VEC3"
      },
      {
         "bufferView" : 7,
         "byteOffset" : 0,
         "componentType" : 5125,
         "count" : 58800,
         "type" : "SCALAR"
      },
      {
         "bufferView" : 8,
         "byteOffset" : 0,
         "componentType" : 5126,
         "count" : 9802,
         "max" : [ 0.42498111724853516, 0.64998114109039307, 0.15000000596046448 ],
         "min" : [ 0.1250188797712326, 0.35001888871192932, -0.15000000596046448 ],
         "type" : "VEC3"
      },
      {
         "bufferView" : 9,
         "byteOffset" : 0,
         "componentType" : 5125,
         "count" : 58800,
         "type" : "SCALAR"
      },
      {
         "bufferView" : 10,
         "byteOffset" : 0,
         "componentType" : 5126,
         "count" : 9802,
         "max" : [ 0.8749811053276062, 0.64998114109039307, 0.15000000596046448 ],
         "min" : [ 0.57501888275146484, 0.35001888871192932, -0.15000000596046448 ],
         "type" : "VEC3"
      },
      {
         "bufferView" : 11,
         "byteOffset" : 0,
         "componentType" : 5125,
         "count" : 58800,
         "type" : "SCALAR"
      },
      {
         "bufferView" : 12,
         "byteOffset" : 0,
         "componentType" : 5126,
         "count" : 13728,
         "max" : [ 0.99494951963424683, 0.4947408139705658, 0.0 ],
         "min" : [ 0.0050505050458014011, 0.088218122720718384, 0.0 ],
         "type" : "VEC3"
      },
      {
         "bufferView" : 13,
         "byteOffset" : 0,
         "componentType" : 5126,
         "count" : 13728,
         "normalized" : false,
         "type" : "VEC2"
      },
      {
         "bufferView" : 14,
         "byteOffset" : 0,
         "componentType" : 5125,
         "count" : 27052,
         "type" : "SCALAR"
      }
   ],
   "asset" : 
   {
      "generator" : "VTK",
      "version" : "2.0"
   },
   "bufferViews" : 
   [
      {
         "buffer" : 0,
         "byteLength" : 58212,
         "byteOffset" : 0
      },
      {
         "buffer" : 1,
         "byteLength" : 38808,
         "byteOffset" : 0
      },
      {
         "buffer" : 2,
         "byteLength" : 112896,
         "byteOffset" : 0
      },
      {
         "buffer" : 3,
         "byteLength" : 273,
         "byteOffset" : 0
      },
      {
         "buffer" : 4,
         "byteLength" : 117624,
         "byteOffset" : 0
      },
      {
         "buffer" : 5,
         "byteLength" : 235200,
         "byteOffset" : 0
      },
      {
         "buffer" : 6,
         "byteLength" : 117624,
         "byteOffset" : 0
      },
      {
         "buffer" : 7,
         "byteLength" : 235200,
         "byteOffset" : 0
      },
      {
         "buffer" : 8,
         "byteLength" : 117624,
         "byteOffset" : 0
      },
      {
         "buffer" : 9,
         "byteLength" : 235200,
         "byteOffset" : 0
      },
      {
         "buffer" : 10,
         "byteLength" : 117624,
         "byteOffset" : 0
      },
      {
         "buffer" : 11,
         "byteLength" : 235200,
         "byteOffset" : 0
      },
      {
         "buffer" : 12,
         "byteLength" : 164736,
         "byteOffset" : 0
      },
      {
         "buffer" : 13,
         "byteLength" : 109824,
         "byteOffset" : 0
      },
      {
         "buffer" : 14,
         "byteLength" : 108208,
         "byteOffset" : 0
      },
      {
         "buffer" : 15,
         "byteLength" : 273,
         "byteOffset" : 0
      }
   ],
   "buffers" : 
   [
      {
         "byteLength" : 58212,
         "uri" : "buffer10142451.bin"
      },
      {
         "byteLength" : 38808,
         "uri" : "buffer10142514.bin"
      },
      {
         "byteLength" : 112896,
         "uri" : "buffer10142515.bin"
      },
      {
         "byteLength" : 273,
         "uri" : "buffer10143006.bin"
      },
      {
         "byteLength" : 117624,
         "uri" : "buffer3308881.bin"
      },
      {
         "byteLength" : 235200,
         "uri" : "buffer10143446.bin"
      },
      {
         "byteLength" : 117624,
         "uri" : "buffer3342511.bin"
      },
      {
         "byteLength" : 235200,
         "uri" : "buffer10143877.bin"
      },
      {
         "byteLength" : 117624,
         "uri" : "buffer3591151.bin"
      },
      {
         "byteLength" : 235200,
         "uri" : "buffer10144308.bin"
      },
      {
         "byteLength" : 117624,
         "uri" : "buffer3728008.bin"
      },
      {
         "byteLength" : 235200,
         "uri" : "buffer10144739.bin"
      },
      {
         "byteLength" : 164736,
         "uri" : "buffer10027837.bin"
      },
      {
         "byteLength" : 109824,
         "uri" : "buffer10145159.bin"
      },
      {
         "byteLength" : 108208,
         "uri" : "buffer10145160.bin"
      },
      {
         "byteLength" : 273,
         "uri" : "buffer10145661.bin"
      }
   ],
   "cameras" : 
   [
      {
         "perspective" : 
         {
            "aspectRatio" : 1.2381951731374607,
            "yfov" : 0.52359877559829882,
            "zfar" : 2.939746984148274,
            "znear" : 2.2023443226462001
         },
         "type" : "perspective"
      }
   ],
   "images" : 
   [
      {
         "bufferView" : 3,
         "mimeType" : "image/png"
      },
      {
         "bufferView" : 15,
         "mimeType" : "image/png"
      }
   ],
   "materials" : 
   [
      {
         "pbrMetallicRoughness" : 
         {
            "baseColorFactor" : [ 1.0, 1.0, 1.0, 1.0 ],
            "baseColorTexture" : 
            {
               "index" : 0,
               "texCoord" : 0
            },
            "metallicFactor" : 0.0,
            "roughnessFactor" : 1.0
         }
      },
      {
         "pbrMetallicRoughness" : 
         {
            "baseColorFactor" : [ 1.0, 0.0, 0.49803921568627452, 1.0 ],
            "metallicFactor" : 0.0,
            "roughnessFactor" : 1.0
         }
      },
      {
         "pbrMetallicRoughness" : 
         {
            "baseColorFactor" : [ 1.0, 0.66666666666666663, 0.0, 1.0 ],
            "metallicFactor" : 0.0,
            "roughnessFactor" : 1.0
         }
      },
      {
         "pbrMetallicRoughness" : 
         {
            "baseColorFactor" : [ 1.0, 0.33333333333333331, 0.0, 1.0 ],
            "metallicFactor" : 0.0,
            "roughnessFactor" : 1.0
         }
      },
      {
         "pbrMetallicRoughness" : 
         {
            "baseColorFactor" : [ 0.66666666666666663, 1.0, 0.49803921568627452, 1.0 ],
            "metallicFactor" : 0.0,
            "roughnessFactor" : 1.0
         }
      },
      {
         "pbrMetallicRoughness" : 
         {
            "baseColorFactor" : [ 1.0, 1.0, 1.0, 1.0 ],
            "baseColorTexture" : 
            {
               "index" : 1,
               "texCoord" : 0
            },
            "metallicFactor" : 0.0,
            "roughnessFactor" : 1.0
         }
      }
   ],
   "meshes" : 
   [
      {
         "name" : "mesh0",
         "primitives" : 
         [
            {
               "attributes" : 
               {
                  "POSITION" : 0,
                  "TEXCOORD_0" : 1
               },
               "indices" : 2,
               "material" : 0,
               "mode" : 4
            }
         ]
      },
      {
         "name" : "mesh1",
         "primitives" : 
         [
            {
               "attributes" : 
               {
                  "POSITION" : 3
               },
               "indices" : 4,
               "material" : 1,
               "mode" : 4
            }
         ]
      },
      {
         "name" : "mesh2",
         "primitives" : 
         [
            {
               "attributes" : 
               {
                  "POSITION" : 5
               },
               "indices" : 6,
               "material" : 2,
               "mode" : 4
            }
         ]
      },
      {
         "name" : "mesh3",
         "primitives" : 
         [
            {
               "attributes" : 
               {
                  "POSITION" : 7
               },
               "indices" : 8,
               "material" : 3,
               "mode" : 4
            }
         ]
      },
      {
         "name" : "mesh4",
         "primitives" : 
         [
            {
               "attributes" : 
               {
                  "POSITION" : 9
               },
               "indices" : 10,
               "material" : 4,
               "mode" : 4
            }
         ]
      },
      {
         "name" : "mesh5",
         "primitives" : 
         [
            {
               "attributes" : 
               {
                  "POSITION" : 11,
                  "TEXCOORD_0" : 12
               },
               "indices" : 13,
               "material" : 5,
               "mode" : 1
            }
         ]
      }
   ],
   "nodes" : 
   [
      {
         "mesh" : 0,
         "name" : "mesh0"
      },
      {
         "mesh" : 1,
         "name" : "mesh1"
      },
      {
         "mesh" : 2,
         "name" : "mesh2"
      },
      {
         "mesh" : 3,
         "name" : "mesh3"
      },
      {
         "mesh" : 4,
         "name" : "mesh4"
      },
      {
         "mesh" : 5,
         "name" : "mesh5"
      },
      {
         "camera" : 0,
         "matrix" : 
         [
            1.0,
            0.0,
            0.0,
            0.0,
            0.0,
            1.0,
            0.0,
            0.0,
            0.0,
            0.0,
            1.0,
            0.0,
            -0.5,
            -0.2500000074505806,
            -2.5261053883914388,
            1.0
         ],
         "name" : "Camera Node"
      },
      {
         "children" : [ 0, 1, 2, 3, 4, 5, 6 ],
         "name" : "Renderer Node"
      }
   ],
   "samplers" : 
   [
      {
         "magFilter" : 9728,
         "minFilter" : 9728,
         "wrapS" : 33071,
         "wrapT" : 33071
      },
      {
         "magFilter" : 9728,
         "minFilter" : 9728,
         "wrapS" : 33071,
         "wrapT" : 33071
      }
   ],
   "scene" : 0,
   "scenes" : 
   [
      {
         "name" : "Layer 0",
         "nodes" : [ 7 ]
      }
   ],
   "textures" : 
   [
      {
         "sampler" : 0,
         "source" : 0
      },
      {
         "sampler" : 1,
         "source" : 1
      }
   ]
}