{
	"asset":{
		"generator":"Khronos glTF Blender I/O v3.6.28",
		"version":"2.0"
	},
	"scene":0,
	"scenes":[
		{
			"name":"Scene",
			"nodes":[
				0,
				1
			]
		}
	],
	"nodes":[
		{
			"mesh":0,
			"name":"Cube",
			"scale":[
				12.779999732971191,
				1,
				1
			],
			"translation":[
				-0.6640090942382812,
				0.7761759757995605,
				-7.724613666534424
			]
		},
		{
			"mesh":1,
			"name":"model",
			"rotation":[
				0.70710688829422,
				0,
				0,
				0.7071066498756409
			],
			"scale":[
				9,
				9,
				9
			],
			"translation":[
				0,
				0.40995919704437256,
				-20.333168029785156
			]
		}
	],
	"materials":[
		{
			"doubleSided":true,
			"name":"mat14",
			"pbrMetallicRoughness":{
				"baseColorFactor":[
					1,
					0.3400000035762787,
					0.12999999523162842,
					1
				],
				"metallicFactor":0,
				"roughnessFactor":0.5
			}
		},
		{
			"doubleSided":true,
			"name":"sun_primary",
			"pbrMetallicRoughness":{
				"baseColorFactor":[
					1,
					0.9200000166893005,
					0.23000000417232513,
					1
				],
				"metallicFactor":0,
				"roughnessFactor":0.5
			}
		},
		{
			"doubleSided":true,
			"name":"mat4",
			"pbrMetallicRoughness":{
				"baseColorFactor":[
					0,
					0.7400000095367432,
					0.8299999833106995,
					1
				],
				"metallicFactor":0,
				"roughnessFactor":0.5
			}
		},
		{
			"doubleSided":true,
			"name":"mat20",
			"pbrMetallicRoughness":{
				"baseColorFactor":[
					0.4699999988079071,
					0.33000001311302185,
					0.2800000011920929,
					1
				],
				"metallicFactor":0,
				"roughnessFactor":0.5
			}
		},
		{
			"doubleSided":true,
			"name":"mat18",
			"pbrMetallicRoughness":{
				"baseColorFactor":[
					1,
					0.800000011920929,
					0.5299999713897705,
					1
				],
				"metallicFactor":0,
				"roughnessFactor":0.5
			}
		},
		{
			"doubleSided":true,
			"name":"sun_secondary",
			"pbrMetallicRoughness":{
				"baseColorFactor":[
					1,
					0.6000000238418579,
					0,
					1
				],
				"metallicFactor":0,
				"roughnessFactor":0.5
			}
		},
		{
			"doubleSided":true,
			"name":"mat15",
			"pbrMetallicRoughness":{
				"baseColorFactor":[
					0.8100000023841858,
					0.8500000238418579,
					0.8600000143051147,
					1
				],
				"metallicFactor":0,
				"roughnessFactor":0.5
			}
		},
		{
			"doubleSided":true,
			"name":"mat8",
			"pbrMetallicRoughness":{
				"baseColorFactor":[
					0.9599999785423279,
					0.25999999046325684,
					0.20999999344348907,
					1
				],
				"metallicFactor":0,
				"roughnessFactor":0.5
			}
		},
		{
			"doubleSided":true,
			"name":"mat9",
			"pbrMetallicRoughness":{
				"baseColorFactor":[
					0.550000011920929,
					0.7599999904632568,
					0.28999999165534973,
					1
				],
				"metallicFactor":0,
				"roughnessFactor":0.5
			}
		},
		{
			"doubleSided":true,
			"name":"mat3",
			"pbrMetallicRoughness":{
				"baseColorFactor":[
					0.5,
					0.8700000047683716,
					0.9200000166893005,
					1
				],
				"metallicFactor":0,
				"roughnessFactor":0.5
			}
		},
		{
			"doubleSided":true,
			"name":"mat21",
			"pbrMetallicRoughness":{
				"baseColorFactor":[
					1,
					1,
					1,
					1
				],
				"metallicFactor":0,
				"roughnessFactor":0.5
			}
		},
		{
			"doubleSided":true,
			"name":"mat19",
			"pbrMetallicRoughness":{
				"baseColorFactor":[
					0.8700000047683716,
					0.6000000238418579,
					0.27000001072883606,
					1
				],
				"metallicFactor":0,
				"roughnessFactor":0.5
			}
		},
		{
			"doubleSided":true,
			"name":"mat5",
			"pbrMetallicRoughness":{
				"baseColorFactor":[
					0.009999999776482582,
					0.6100000143051147,
					0.8999999761581421,
					1
				],
				"metallicFactor":0,
				"roughnessFactor":0.5
			}
		},
		{
			"doubleSided":true,
			"name":"mat22",
			"pbrMetallicRoughness":{
				"baseColorFactor":[
					0.6200000047683716,
					0.6200000047683716,
					0.6200000047683716,
					1
				],
				"metallicFactor":0,
				"roughnessFactor":0.5
			}
		},
		{
			"doubleSided":true,
			"name":"Material.001",
			"pbrMetallicRoughness":{
				"baseColorFactor":[
					1,
					0.6000000238418579,
					0,
					1
				],
				"metallicFactor":0,
				"roughnessFactor":0.5
			}
		}
	],
	"meshes":[
		{
			"name":"Cube",
			"primitives":[
				{
					"attributes":{
						"POSITION":0,
						"NORMAL":1,
						"TEXCOORD_0":2
					},
					"indices":3,
					"material":0
				}
			]
		},
		{
			"name":"model",
			"primitives":[
				{
					"attributes":{
						"POSITION":4,
						"NORMAL":5
					},
					"indices":6,
					"material":1
				},
				{
					"attributes":{
						"POSITION":7,
						"NORMAL":8
					},
					"indices":9,
					"material":2
				},
				{
					"attributes":{
						"POSITION":10,
						"NORMAL":11
					},
					"indices":12,
					"material":3
				},
				{
					"attributes":{
						"POSITION":13,
						"NORMAL":14
					},
					"indices":15,
					"material":4
				},
				{
					"attributes":{
						"POSITION":16,
						"NORMAL":17
					},
					"indices":18,
					"material":5
				},
				{
					"attributes":{
						"POSITION":19,
						"NORMAL":20
					},
					"indices":21,
					"material":6
				},
				{
					"attributes":{
						"POSITION":22,
						"NORMAL":23
					},
					"indices":24,
					"material":7
				},
				{
					"attributes":{
						"POSITION":25,
						"NORMAL":26
					},
					"indices":27,
					"material":8
				},
				{
					"attributes":{
						"POSITION":28,
						"NORMAL":29
					},
					"indices":30,
					"material":9
				},
				{
					"attributes":{
						"POSITION":31,
						"NORMAL":32
					},
					"indices":33,
					"material":10
				},
				{
					"attributes":{
						"POSITION":34,
						"NORMAL":35
					},
					"indices":36,
					"material":11
				},
				{
					"attributes":{
						"POSITION":37,
						"NORMAL":38
					},
					"indices":39,
					"material":0
				},
				{
					"attributes":{
						"POSITION":40,
						"NORMAL":41
					},
					"indices":42,
					"material":12
				},
				{
					"attributes":{
						"POSITION":43,
						"NORMAL":44
					},
					"indices":45,
					"material":13
				},
				{
					"attributes":{
						"POSITION":46,
						"NORMAL":47
					},
					"indices":48,
					"material":14
				}
			]
		}
	],
	"accessors":[
		{
			"bufferView":0,
			"componentType":5126,
			"count":24,
			"max":[
				0.056769371032714844,
				0.7761759757995605,
				0.47633981704711914
			],
			"min":[
				-0.056769371032714844,
				-0.7761759757995605,
				-0.47633981704711914
			],
			"type":"VEC3"
		},
		{
			"bufferView":1,
			"componentType":5126,
			"count":24,
			"type":"VEC3"
		},
		{
			"bufferView":2,
			"componentType":5126,
			"count":24,
			"type":"VEC2"
		},
		{
			"bufferView":3,
			"componentType":5123,
			"count":36,
			"type":"SCALAR"
		},
		{
			"bufferView":4,
			"componentType":5126,
			"count":518,
			"max":[
				1.4669450521469116,
				5.109314918518066,
				1.2655600309371948
			],
			"min":[
				-0.5527452230453491,
				3.144542932510376,
				-0.8160616159439087
			],
			"type":"VEC3"
		},
		{
			"bufferView":5,
			"componentType":5126,
			"count":518,
			"type":"VEC3"
		},
		{
			"bufferView":6,
			"componentType":5123,
			"count":564,
			"type":"SCALAR"
		},
		{
			"bufferView":7,
			"componentType":5126,
			"count":512,
			"max":[
				0.44615408778190613,
				1.940953016281128,
				0.42950019240379333
			],
			"min":[
				0.10597120225429535,
				1.6012190580368042,
				0.08673263341188431
			],
			"type":"VEC3"
		},
		{
			"bufferView":8,
			"componentType":5126,
			"count":512,
			"type":"VEC3"
		},
		{
			"bufferView":9,
			"componentType":5123,
			"count":564,
			"type":"SCALAR"
		},
		{
			"bufferView":10,
			"componentType":5126,
			"count":1532,
			"max":[
				1.1853059530258179,
				3.039541006088257,
				0.6656761169433594
			],
			"min":[
				1.0351649522781372,
				2.8783140182495117,
				0.5012935996055603
			],
			"type":"VEC3"
		},
		{
			"bufferView":11,
			"componentType":5126,
			"count":1532,
			"type":"VEC3"
		},
		{
			"bufferView":12,
			"componentType":5123,
			"count":1590,
			"type":"SCALAR"
		},
		{
			"bufferView":13,
			"componentType":5126,
			"count":668,
			"max":[
				2.130776882171631,
				-1.154539942741394,
				0.140905499458313
			],
			"min":[
				-2.2564659118652344,
				-2.6256539821624756,
				-0.9317951798439026
			],
			"type":"VEC3"
		},
		{
			"bufferView":14,
			"componentType":5126,
			"count":668,
			"type":"VEC3"
		},
		{
			"bufferView":15,
			"componentType":5123,
			"count":942,
			"type":"SCALAR"
		},
		{
			"bufferView":16,
			"componentType":5126,
			"count":3462,
			"max":[
				1.5747079849243164,
				5.181274890899658,
				1.281370997428894
			],
			"min":[
				-0.6190990805625916,
				3.027395009994507,
				-0.9495906233787537
			],
			"type":"VEC3"
		},
		{
			"bufferView":17,
			"componentType":5126,
			"count":3462,
			"type":"VEC3"
		},
		{
			"bufferView":18,
			"componentType":5123,
			"count":3912,
			"type":"SCALAR"
		},
		{
			"bufferView":19,
			"componentType":5126,
			"count":20726,
			"max":[
				2.9389209747314453,
				1.9050840139389038,
				0.5885449051856995
			],
			"min":[
				-2.823780059814453,
				-1.5431580543518066,
				-0.5654491186141968
			],
			"type":"VEC3"
		},
		{
			"bufferView":20,
			"componentType":5126,
			"count":20726,
			"type":"VEC3"
		},
		{
			"bufferView":21,
			"componentType":5123,
			"count":22068,
			"type":"SCALAR"
		},
		{
			"bufferView":22,
			"componentType":5126,
			"count":1564,
			"max":[
				0.32824280858039856,
				0.721164882183075,
				0.2715716063976288
			],
			"min":[
				0.06835991144180298,
				0.46281081438064575,
				0.004709839820861816
			],
			"type":"VEC3"
		},
		{
			"bufferView":23,
			"componentType":5126,
			"count":1564,
			"type":"VEC3"
		},
		{
			"bufferView":24,
			"componentType":5123,
			"count":1620,
			"type":"SCALAR"
		},
		{
			"bufferView":25,
			"componentType":5126,
			"count":2646,
			"max":[
				0.45532891154289246,
				1.9228639602661133,
				0.4140600860118866
			],
			"min":[
				0.10332509875297546,
				1.5877360105514526,
				0.1079426035284996
			],
			"type":"VEC3"
		},
		{
			"bufferView":26,
			"componentType":5126,
			"count":2646,
			"type":"VEC3"
		},
		{
			"bufferView":27,
			"componentType":5123,
			"count":2724,
			"type":"SCALAR"
		},
		{
			"bufferView":28,
			"componentType":5126,
			"count":1648,
			"max":[
				1.3396810293197632,
				-2.7127060890197754,
				0.17905570566654205
			],
			"min":[
				0.5708215236663818,
				-3.2213261127471924,
				-0.5335745215415955
			],
			"type":"VEC3"
		},
		{
			"bufferView":29,
			"componentType":5126,
			"count":1648,
			"type":"VEC3"
		},
		{
			"bufferView":30,
			"componentType":5123,
			"count":2256,
			"type":"SCALAR"
		},
		{
			"bufferView":31,
			"componentType":5126,
			"count":15,
			"max":[
				2.1094770431518555,
				-0.5903975963592529,
				0.5364550948143005
			],
			"min":[
				1.1244750022888184,
				-1.395427942276001,
				0.15973110496997833
			],
			"type":"VEC3"
		},
		{
			"bufferView":32,
			"componentType":5126,
			"count":15,
			"type":"VEC3"
		},
		{
			"bufferView":33,
			"componentType":5123,
			"count":15,
			"type":"SCALAR"
		},
		{
			"bufferView":34,
			"componentType":5126,
			"count":2989,
			"max":[
				2.0311570167541504,
				3.040400981903076,
				0.6581798791885376
			],
			"min":[
				-2.4213619232177734,
				-2.774049997329712,
				-1.0472890138626099
			],
			"type":"VEC3"
		},
		{
			"bufferView":35,
			"componentType":5126,
			"count":2989,
			"type":"VEC3"
		},
		{
			"bufferView":36,
			"componentType":5123,
			"count":3861,
			"type":"SCALAR"
		},
		{
			"bufferView":37,
			"componentType":5126,
			"count":1573,
			"max":[
				1.7852089405059814,
				0.7421579957008362,
				0.27461400628089905
			],
			"min":[
				0.05921715125441551,
				-0.6949477195739746,
				-0.12151060253381729
			],
			"type":"VEC3"
		},
		{
			"bufferView":38,
			"componentType":5126,
			"count":1573,
			"type":"VEC3"
		},
		{
			"bufferView":39,
			"componentType":5123,
			"count":1665,
			"type":"SCALAR"
		},
		{
			"bufferView":40,
			"componentType":5126,
			"count":520,
			"max":[
				-0.2057037055492401,
				-3.507354974746704,
				-0.3072079122066498
			],
			"min":[
				-0.7073538899421692,
				-4.0221028327941895,
				-0.8113275766372681
			],
			"type":"VEC3"
		},
		{
			"bufferView":41,
			"componentType":5126,
			"count":520,
			"type":"VEC3"
		},
		{
			"bufferView":42,
			"componentType":5123,
			"count":564,
			"type":"SCALAR"
		},
		{
			"bufferView":43,
			"componentType":5126,
			"count":2044,
			"max":[
				0.4203501045703888,
				-4.446211814880371,
				-0.37153148651123047
			],
			"min":[
				0.315286785364151,
				-4.542846202850342,
				-0.46941450238227844
			],
			"type":"VEC3"
		},
		{
			"bufferView":44,
			"componentType":5126,
			"count":2044,
			"type":"VEC3"
		},
		{
			"bufferView":45,
			"componentType":5123,
			"count":2154,
			"type":"SCALAR"
		},
		{
			"bufferView":46,
			"componentType":5126,
			"count":2870,
			"max":[
				2.2527170181274414,
				2.718453884124756,
				0.4372884929180145
			],
			"min":[
				-0.712088406085968,
				-1.6364339590072632,
				-0.48891058564186096
			],
			"type":"VEC3"
		},
		{
			"bufferView":47,
			"componentType":5126,
			"count":2870,
			"type":"VEC3"
		},
		{
			"bufferView":48,
			"componentType":5123,
			"count":3084,
			"type":"SCALAR"
		}
	],
	"bufferViews":[
		{
			"buffer":0,
			"byteLength":288,
			"byteOffset":0,
			"target":34962
		},
		{
			"buffer":0,
			"byteLength":288,
			"byteOffset":288,
			"target":34962
		},
		{
			"buffer":0,
			"byteLength":192,
			"byteOffset":576,
			"target":34962
		},
		{
			"buffer":0,
			"byteLength":72,
			"byteOffset":768,
			"target":34963
		},
		{
			"buffer":0,
			"byteLength":6216,
			"byteOffset":840,
			"target":34962
		},
		{
			"buffer":0,
			"byteLength":6216,
			"byteOffset":7056,
			"target":34962
		},
		{
			"buffer":0,
			"byteLength":1128,
			"byteOffset":13272,
			"target":34963
		},
		{
			"buffer":0,
			"byteLength":6144,
			"byteOffset":14400,
			"target":34962
		},
		{
			"buffer":0,
			"byteLength":6144,
			"byteOffset":20544,
			"target":34962
		},
		{
			"buffer":0,
			"byteLength":1128,
			"byteOffset":26688,
			"target":34963
		},
		{
			"buffer":0,
			"byteLength":18384,
			"byteOffset":27816,
			"target":34962
		},
		{
			"buffer":0,
			"byteLength":18384,
			"byteOffset":46200,
			"target":34962
		},
		{
			"buffer":0,
			"byteLength":3180,
			"byteOffset":64584,
			"target":34963
		},
		{
			"buffer":0,
			"byteLength":8016,
			"byteOffset":67764,
			"target":34962
		},
		{
			"buffer":0,
			"byteLength":8016,
			"byteOffset":75780,
			"target":34962
		},
		{
			"buffer":0,
			"byteLength":1884,
			"byteOffset":83796,
			"target":34963
		},
		{
			"buffer":0,
			"byteLength":41544,
			"byteOffset":85680,
			"target":34962
		},
		{
			"buffer":0,
			"byteLength":41544,
			"byteOffset":127224,
			"target":34962
		},
		{
			"buffer":0,
			"byteLength":7824,
			"byteOffset":168768,
			"target":34963
		},
		{
			"buffer":0,
			"byteLength":248712,
			"byteOffset":176592,
			"target":34962
		},
		{
			"buffer":0,
			"byteLength":248712,
			"byteOffset":425304,
			"target":34962
		},
		{
			"buffer":0,
			"byteLength":44136,
			"byteOffset":674016,
			"target":34963
		},
		{
			"buffer":0,
			"byteLength":18768,
			"byteOffset":718152,
			"target":34962
		},
		{
			"buffer":0,
			"byteLength":18768,
			"byteOffset":736920,
			"target":34962
		},
		{
			"buffer":0,
			"byteLength":3240,
			"byteOffset":755688,
			"target":34963
		},
		{
			"buffer":0,
			"byteLength":31752,
			"byteOffset":758928,
			"target":34962
		},
		{
			"buffer":0,
			"byteLength":31752,
			"byteOffset":790680,
			"target":34962
		},
		{
			"buffer":0,
			"byteLength":5448,
			"byteOffset":822432,
			"target":34963
		},
		{
			"buffer":0,
			"byteLength":19776,
			"byteOffset":827880,
			"target":34962
		},
		{
			"buffer":0,
			"byteLength":19776,
			"byteOffset":847656,
			"target":34962
		},
		{
			"buffer":0,
			"byteLength":4512,
			"byteOffset":867432,
			"target":34963
		},
		{
			"buffer":0,
			"byteLength":180,
			"byteOffset":871944,
			"target":34962
		},
		{
			"buffer":0,
			"byteLength":180,
			"byteOffset":872124,
			"target":34962
		},
		{
			"buffer":0,
			"byteLength":30,
			"byteOffset":872304,
			"target":34963
		},
		{
			"buffer":0,
			"byteLength":35868,
			"byteOffset":872336,
			"target":34962
		},
		{
			"buffer":0,
			"byteLength":35868,
			"byteOffset":908204,
			"target":34962
		},
		{
			"buffer":0,
			"byteLength":7722,
			"byteOffset":944072,
			"target":34963
		},
		{
			"buffer":0,
			"byteLength":18876,
			"byteOffset":951796,
			"target":34962
		},
		{
			"buffer":0,
			"byteLength":18876,
			"byteOffset":970672,
			"target":34962
		},
		{
			"buffer":0,
			"byteLength":3330,
			"byteOffset":989548,
			"target":34963
		},
		{
			"buffer":0,
			"byteLength":6240,
			"byteOffset":992880,
			"target":34962
		},
		{
			"buffer":0,
			"byteLength":6240,
			"byteOffset":999120,
			"target":34962
		},
		{
			"buffer":0,
			"byteLength":1128,
			"byteOffset":1005360,
			"target":34963
		},
		{
			"buffer":0,
			"byteLength":24528,
			"byteOffset":1006488,
			"target":34962
		},
		{
			"buffer":0,
			"byteLength":24528,
			"byteOffset":1031016,
			"target":34962
		},
		{
			"buffer":0,
			"byteLength":4308,
			"byteOffset":1055544,
			"target":34963
		},
		{
			"buffer":0,
			"byteLength":34440,
			"byteOffset":1059852,
			"target":34962
		},
		{
			"buffer":0,
			"byteLength":34440,
			"byteOffset":1094292,
			"target":34962
		},
		{
			"buffer":0,
			"byteLength":6168,
			"byteOffset":1128732,
			"target":34963
		}
	],
	"buffers":[
		{
			"byteLength":1134900,
			"uri":"data:application/octet-stream;base64,"
		}
	]
}
